<svg width="80" height="80" viewBox="0 0 80 80" fill="none" xmlns="http://www.w3.org/2000/svg">
<rect width="80" height="80" rx="12" fill="#00542D"/>
<path d="M51.8937 43.947C51.3307 43.6655 50.6679 43.6655 50.1049 43.947L40.8939 48.5525C40.3309 48.834 39.6681 48.834 39.1051 48.5525L29.8942 43.947C29.3311 43.6655 28.6684 43.6655 28.1053 43.947L25.5773 45.211C24.1032 45.9481 24.1032 48.0517 25.5773 48.7887L39.1051 55.5527C39.6682 55.8342 40.3309 55.8342 40.894 55.5527L54.4218 48.7887C55.8959 48.0517 55.8959 45.9481 54.4218 45.211L51.8937 43.947Z" stroke="white" stroke-width="1.5" stroke-linecap="round" stroke-linejoin="round"/>
<path d="M51.8937 36.9475C51.3307 36.6659 50.6679 36.6659 50.1049 36.9475L40.8939 41.5529C40.3309 41.8345 39.6681 41.8345 39.1051 41.5529L29.8942 36.9475C29.3311 36.666 28.6684 36.666 28.1053 36.9475L25.5773 38.2115C24.1032 38.9486 24.1032 41.0522 25.5773 41.7892L39.1051 48.5532C39.6682 48.8347 40.3309 48.8347 40.894 48.5532L54.4218 41.7892C55.8959 41.0522 55.8959 38.9486 54.4218 38.2115L51.8937 36.9475Z" stroke="#00C537" stroke-width="1.5" stroke-linecap="round" stroke-linejoin="round"/>
<path d="M23.7889 32.1056L39.5528 24.2236C39.8343 24.0828 40.1657 24.0828 40.4472 24.2236L56.2111 32.1056C56.9482 32.4741 56.9482 33.5259 56.2111 33.8944L40.4472 41.7764C40.1657 41.9172 39.8343 41.9172 39.5528 41.7764L23.7889 33.8944C23.0518 33.5259 23.0518 32.4741 23.7889 32.1056Z" stroke="white" stroke-width="1.5" stroke-linecap="round" stroke-linejoin="round"/>
</svg>
