<svg width="60" height="60" viewBox="0 0 60 60" fill="none" xmlns="http://www.w3.org/2000/svg">
<path d="M44.8674 34.9339C44.1636 34.5819 43.3352 34.5819 42.6313 34.9339L31.1177 40.6907C30.4139 41.0426 29.5854 41.0426 28.8816 40.6907L17.368 34.9339C16.6642 34.582 15.8357 34.582 15.1319 34.9339L11.9718 36.5139C10.1292 37.4352 10.1292 40.0647 11.9718 40.9861L28.8816 49.441C29.5855 49.7929 30.4139 49.7929 31.1177 49.441L48.0275 40.9861C49.8702 40.0647 49.8702 37.4352 48.0275 36.5139L44.8674 34.9339Z" stroke="#121418" stroke-width="1.5" stroke-linecap="round" stroke-linejoin="round"/>
<path d="M44.8674 26.1843C44.1636 25.8324 43.3352 25.8324 42.6313 26.1843L31.1177 31.9412C30.4139 32.2931 29.5854 32.2931 28.8816 31.9412L17.368 26.1844C16.6642 25.8325 15.8357 25.8325 15.1319 26.1844L11.9718 27.7644C10.1292 28.6857 10.1292 31.3152 11.9718 32.2365L28.8816 40.6915C29.5855 41.0434 30.4139 41.0434 31.1177 40.6915L48.0275 32.2365C49.8702 31.3152 49.8702 28.6857 48.0275 27.7644L44.8674 26.1843Z" stroke="#00C537" stroke-width="1.5" stroke-linecap="round" stroke-linejoin="round"/>
<path d="M9.28886 20.3556L29.5528 10.2236C29.8343 10.0828 30.1657 10.0828 30.4472 10.2236L50.7111 20.3556C51.4482 20.7241 51.4482 21.7759 50.7111 22.1444L30.4472 32.2764C30.1657 32.4172 29.8343 32.4172 29.5528 32.2764L9.28885 22.1444C8.55181 21.7759 8.55181 20.7241 9.28886 20.3556Z" stroke="#121418" stroke-width="1.5" stroke-linecap="round" stroke-linejoin="round"/>
</svg>
