<svg width="38" height="31" viewBox="0 0 38 31" fill="none" xmlns="http://www.w3.org/2000/svg">
<path d="M32.1811 17.8731C30.508 17.4034 29.6715 16.6987 29.6715 15.7592C29.6715 14.777 30.0898 13.0688 30.9263 10.6346C31.8047 8.20039 33.1432 5.18967 34.9418 1.60244C34.9418 1.26079 34.7954 0.919155 34.5026 0.577511C34.2098 0.235868 33.917 0.0650501 33.6242 0.0650501C32.3694 0.0650501 30.4662 2.67007 27.9147 7.8801C25.405 13.0901 24.1502 17.1685 24.1502 20.1151C24.1502 23.0618 24.924 25.56 26.4717 27.6099C28.0193 29.617 29.7551 30.6206 31.6792 30.6206C33.6451 30.6206 35.1718 30.0654 36.2593 28.9551C37.3469 27.8448 37.8906 26.286 37.8906 24.2789C37.8906 21.0333 35.9875 18.898 32.1811 17.8731Z" fill="#00C537"/>
<path d="M9.02948 18.2575C7.85831 17.8731 7.27272 17.3606 7.27272 16.7201C7.27272 14.8837 8.17201 12.2787 9.97061 8.90502C11.7692 5.53131 12.6685 3.71634 12.6685 3.46011C12.6685 2.47789 12.3339 1.98678 11.6646 1.98678C10.0752 1.98678 7.83739 4.57045 4.95128 9.73777C2.06516 14.8624 0.622105 18.898 0.622105 21.8447C0.622105 27.6099 2.92263 30.4925 7.52368 30.4925C9.40593 30.4925 10.9326 30.0014 12.1038 29.0192C13.275 28.0369 13.8606 26.6917 13.8606 24.9835C13.8606 23.4034 13.3587 21.9728 12.3548 20.6917C11.3509 19.4105 10.2425 18.5991 9.02948 18.2575Z" fill="#00C537"/>
</svg>
