<svg xmlns="http://www.w3.org/2000/svg" width="174" height="36" viewBox="0 0 174 36" fill="none">
  <path d="M76.3378 33.105C73.7026 33.105 71.4401 32.6392 69.5502 31.7075C67.6603 30.7759 66.1164 29.5648 64.9186 28.0741C63.7474 26.5835 62.8823 24.9598 62.3233 23.203C61.7644 21.4462 61.4849 19.756 61.4849 18.1322V17.2538C61.4849 15.4438 61.7644 13.6604 62.3233 11.9036C62.9089 10.1468 63.8006 8.54969 64.9985 7.11231C66.1963 5.67493 67.7135 4.53034 69.5502 3.67856C71.4134 2.80016 73.6094 2.36096 76.1382 2.36096C78.7734 2.36096 81.0625 2.84009 83.0057 3.79835C84.9754 4.72998 86.5459 6.06089 87.7171 7.79108C88.8883 9.49464 89.5937 11.491 89.8332 13.7802H84.1236C83.9107 12.4493 83.4316 11.3313 82.6863 10.4263C81.9676 9.49464 81.0492 8.80257 79.9313 8.35006C78.8133 7.87093 77.5489 7.63137 76.1382 7.63137C74.7008 7.63137 73.4231 7.88424 72.3052 8.38999C71.1872 8.86911 70.2556 9.56119 69.5102 10.4662C68.7649 11.3712 68.1926 12.436 67.7934 13.6604C67.4207 14.8848 67.2344 16.2424 67.2344 17.733C67.2344 19.1704 67.4207 20.5013 67.7934 21.7257C68.1926 22.9501 68.7782 24.0282 69.5502 24.9598C70.3221 25.8648 71.267 26.5702 72.385 27.076C73.5296 27.5817 74.8472 27.8346 76.3378 27.8346C78.5205 27.8346 80.3572 27.3022 81.8478 26.2375C83.365 25.1461 84.2833 23.6289 84.6028 21.6858H90.3124C90.0462 23.762 89.3408 25.6652 88.1962 27.3954C87.0516 29.1256 85.4812 30.5097 83.4848 31.5478C81.4884 32.5859 79.1061 33.105 76.3378 33.105Z" fill="#282829"/>
  <path d="M92.9407 32.3464V3.19944H98.4906V32.3464H92.9407ZM90.2256 7.35187V3.19944H98.4906V7.35187H90.2256Z" fill="#282829"/>
  <path d="M113.251 33.105C111.335 33.105 109.644 32.7989 108.18 32.1867C106.716 31.5744 105.479 30.7493 104.467 29.7112C103.456 28.6464 102.684 27.4486 102.151 26.1177C101.646 24.7868 101.393 23.4026 101.393 21.9653V21.1268C101.393 19.6362 101.659 18.2254 102.191 16.8945C102.75 15.537 103.536 14.3392 104.547 13.301C105.585 12.2363 106.836 11.4111 108.3 10.8255C109.764 10.2133 111.415 9.90722 113.251 9.90722C115.088 9.90722 116.738 10.2133 118.202 10.8255C119.666 11.4111 120.904 12.2363 121.915 13.301C122.954 14.3392 123.739 15.537 124.271 16.8945C124.804 18.2254 125.07 19.6362 125.07 21.1268V21.9653C125.07 23.4026 124.804 24.7868 124.271 26.1177C123.765 27.4486 123.007 28.6464 121.995 29.7112C120.984 30.7493 119.746 31.5744 118.282 32.1867C116.818 32.7989 115.141 33.105 113.251 33.105ZM113.251 28.3536C114.609 28.3536 115.753 28.0608 116.685 27.4752C117.617 26.863 118.322 26.0512 118.801 25.0397C119.28 24.0016 119.52 22.8304 119.52 21.5261C119.52 20.1952 119.267 19.024 118.761 18.0125C118.282 16.9744 117.563 16.1625 116.605 15.5769C115.673 14.9647 114.556 14.6586 113.251 14.6586C111.947 14.6586 110.816 14.9647 109.857 15.5769C108.926 16.1625 108.207 16.9744 107.701 18.0125C107.196 19.024 106.943 20.1952 106.943 21.5261C106.943 22.8304 107.182 24.0016 107.661 25.0397C108.167 26.0512 108.886 26.863 109.817 27.4752C110.749 28.0608 111.894 28.3536 113.251 28.3536Z" fill="#282829"/>
  <path d="M135.319 33.0251C132.817 33.0251 130.874 32.2 129.49 30.5496C128.133 28.8993 127.454 26.4504 127.454 23.203V10.6259H133.004V23.6821C133.004 25.0131 133.376 26.0778 134.122 26.8763C134.867 27.6483 135.878 28.0342 137.156 28.0342C138.434 28.0342 139.472 27.6216 140.27 26.7965C141.096 25.9713 141.508 24.8533 141.508 23.4426V10.6259H147.058V32.3464H142.666V23.1232H143.105C143.105 25.3058 142.826 27.1292 142.267 28.5932C141.708 30.0572 140.869 31.1619 139.751 31.9072C138.633 32.6525 137.236 33.0251 135.559 33.0251H135.319Z" fill="#282829"/>
  <path d="M160.421 33.0651C158.903 33.0651 157.506 32.7856 156.228 32.2266C154.951 31.6676 153.846 30.8824 152.914 29.8709C151.983 28.8594 151.264 27.6882 150.758 26.3573C150.252 24.9997 150 23.5357 150 21.9653V21.1268C150 19.5829 150.239 18.1322 150.718 16.7747C151.224 15.4172 151.916 14.2327 152.795 13.2212C153.7 12.2097 154.778 11.4245 156.029 10.8655C157.306 10.2799 158.717 9.98708 160.261 9.98708C161.964 9.98708 163.455 10.3597 164.733 11.105C166.037 11.8237 167.075 12.9151 167.847 14.3791C168.619 15.8431 169.045 17.6797 169.125 19.889L167.488 17.9725V3.19944H173.038V32.3464H168.646V23.1232H169.604C169.524 25.3325 169.072 27.1824 168.246 28.673C167.421 30.1371 166.33 31.2417 164.972 31.987C163.641 32.7057 162.124 33.0651 160.421 33.0651ZM161.658 28.3936C162.75 28.3936 163.748 28.154 164.653 27.6749C165.558 27.1691 166.277 26.4504 166.809 25.5188C167.368 24.5605 167.647 23.4426 167.647 22.1649V20.5678C167.647 19.2901 167.368 18.2254 166.809 17.3736C166.25 16.4952 165.518 15.8298 164.613 15.3773C163.708 14.8981 162.723 14.6586 161.658 14.6586C160.461 14.6586 159.396 14.9514 158.464 15.537C157.559 16.096 156.84 16.8945 156.308 17.9326C155.802 18.9707 155.549 20.1818 155.549 21.566C155.549 22.9501 155.816 24.1613 156.348 25.1994C156.88 26.2109 157.599 26.9961 158.504 27.5551C159.436 28.1141 160.487 28.3936 161.658 28.3936Z" fill="#282829"/>
  <path d="M40.5759 35.4112C38.6584 35.4112 37.4768 34.5259 35.5466 33.4833C33.6164 32.4407 28.0339 28.2428 28.0339 23.0173C28.0339 19.4724 27.1201 16.6053 25.5639 14.3204C24.0193 12.053 21.9268 10.4822 19.7499 9.37325C18.701 8.83897 17.6093 8.40209 16.5223 8.041C15.8886 7.83063 15.5209 7.15025 15.7958 6.54191C17.5385 2.68408 21.4193 0 25.9276 0C32.0643 0 37.0394 4.9748 37.0394 11.1118C37.0394 12.4248 36.8117 13.6847 36.3936 14.8538C38.1647 13.6602 40.2987 12.9636 42.5952 12.9636C48.7319 12.9636 53.707 17.9384 53.707 24.0755C53.707 31.4634 47.2149 35.4112 40.5759 35.4112Z" fill="#282829"/>
  <path d="M0 23.1495C0 29.0067 3.86157 33.887 8.97729 34.9654C9.7669 35.2538 10.6193 35.4112 11.5086 35.4112H28.773C29.352 35.4112 29.6041 34.6369 29.1621 34.2628C26.1449 31.7098 23.9026 28.112 23.9026 23.0173C23.9026 20.2179 23.1936 18.1791 22.1493 16.6463C21.0931 15.0959 19.6076 13.9371 17.8748 13.0541C16.1258 12.1634 14.227 11.596 12.4138 11.1937C11.9867 11.1398 11.5522 11.1118 11.1118 11.1118C4.9748 11.1118 0 16.5013 0 23.1495Z" fill="#282829"/>
</svg>