<svg width="80" height="157" viewBox="0 0 80 157" fill="none" xmlns="http://www.w3.org/2000/svg">
<rect width="80" height="80" rx="12" fill="#00542D"/>
<path d="M29.4284 38.5556C29.4284 40.5192 27.8934 42.1111 25.9999 42.1111C24.1063 42.1111 22.5713 40.5192 22.5713 38.5556C22.5713 36.5919 24.1063 35 25.9999 35C27.8934 35 29.4284 36.5919 29.4284 38.5556Z" stroke="white" stroke-width="1.5" stroke-linecap="round" stroke-linejoin="round"/>
<path d="M57.4284 38.5556C57.4284 40.5192 55.8934 42.1111 53.9999 42.1111C52.1063 42.1111 50.5713 40.5192 50.5713 38.5556C50.5713 36.5919 52.1063 35 53.9999 35C55.8934 35 57.4284 36.5919 57.4284 38.5556Z" stroke="white" stroke-width="1.5" stroke-linecap="round" stroke-linejoin="round"/>
<path d="M51.3632 52.0001C51.2791 51.7433 51.1869 51.489 51.0866 51.2378C50.6386 50.1164 50.0358 49.0711 49.2987 48.134C49.4413 47.9475 49.5944 47.7693 49.7574 47.6003C50.3145 47.0225 50.9759 46.5642 51.7039 46.2515C52.4319 45.9388 53.2121 45.7778 54 45.7778C54.7879 45.7778 55.5682 45.9388 56.2961 46.2515C57.0241 46.5642 57.6855 47.0225 58.2426 47.6003C58.7998 48.1781 59.2418 48.864 59.5433 49.6189C59.8448 50.3738 60 51.1829 60 52.0001H51.3632Z" stroke="white" stroke-width="1.5" stroke-linecap="round" stroke-linejoin="round"/>
<path d="M28.6368 52.0001C28.7209 51.7433 28.8131 51.489 28.9134 51.2378C29.3614 50.1164 29.9642 49.0711 30.7013 48.134C30.5587 47.9475 30.4056 47.7693 30.2426 47.6003C29.6855 47.0225 29.0241 46.5642 28.2961 46.2515C27.5681 45.9388 26.7879 45.7778 26 45.7778C25.2121 45.7778 24.4319 45.9388 23.7039 46.2515C22.9759 46.5642 22.3145 47.0225 21.7574 47.6003C21.2002 48.1781 20.7583 48.864 20.4567 49.6189C20.1552 50.3738 20 51.1829 20 52.0001H28.6368Z" stroke="white" stroke-width="1.5" stroke-linecap="round" stroke-linejoin="round"/>
<path d="M46.8569 31.1111C46.8569 35.0385 43.7868 38.2222 39.9997 38.2222C36.2126 38.2222 33.1426 35.0385 33.1426 31.1111C33.1426 27.1838 36.2126 24 39.9997 24C43.7868 24 46.8569 27.1838 46.8569 31.1111Z" stroke="#00C537" stroke-width="1.5" stroke-linecap="round" stroke-linejoin="round"/>
<path d="M51.0866 51.2378C51.6896 52.7477 52 54.3659 52 56.0001H28C28 54.3659 28.3104 52.7477 28.9134 51.2378C29.5165 49.728 30.4004 48.3561 31.5147 47.2006C32.629 46.045 33.9519 45.1283 35.4078 44.5029C36.8637 43.8775 38.4241 43.5557 40 43.5557C41.5759 43.5557 43.1363 43.8775 44.5922 44.5029C46.0481 45.1283 47.371 46.045 48.4853 47.2006C49.5996 48.3561 50.4835 49.728 51.0866 51.2378Z" stroke="#00C537" stroke-width="1.5" stroke-linecap="round" stroke-linejoin="round"/>
<line x1="42" y1="96" x2="42" y2="157" stroke="black" stroke-opacity="0.1" stroke-width="4"/>
</svg>
