<svg width="36" height="36" viewBox="0 0 36 36" fill="none" xmlns="http://www.w3.org/2000/svg">
<path d="M4.5 13.5H27M10.5 4.5V9M21 4.5V9M4.5 10.6875C4.5 8.51288 6.17893 6.75 8.25 6.75H23.25C25.3211 6.75 27 8.51288 27 10.6875V18.3839C26.2979 18.1358 25.5424 18.0006 24.7554 18C21.105 17.996 18 21.0996 18 24.75C18 25.539 18.1353 26.2963 18.384 27H8.25C6.17893 27 4.5 25.2371 4.5 23.0625V10.6875Z" stroke="#00542D" stroke-width="1.5" stroke-linecap="round" stroke-linejoin="round"/>
<path d="M24.75 22.5V27M27 24.75H22.5M24.75 31.5C21.0227 31.5 18 28.4787 18 24.75C18 21.0996 21.105 17.996 24.7554 18C28.4814 18.0027 31.5 21.024 31.5 24.75C31.5 28.4774 28.4787 31.5 24.75 31.5Z" stroke="#00C537" stroke-width="1.5" stroke-linecap="round"/>
</svg>
