<svg width="49" height="48" viewBox="0 0 49 48" fill="none" xmlns="http://www.w3.org/2000/svg">
<path d="M6.66602 24H42.666" stroke="#00C537" stroke-width="1.5" stroke-linecap="round"/>
<path d="M24.666 42C34.6071 42 42.666 33.9411 42.666 24C42.666 14.0589 34.6071 6 24.666 6M24.666 42C14.7249 42 6.66602 33.9411 6.66602 24C6.66602 14.0589 14.7249 6 24.666 6M24.666 42C29.0843 42 32.666 33.9411 32.666 24C32.666 14.0589 29.0843 6 24.666 6M24.666 42C20.2477 42 16.666 33.9411 16.666 24C16.666 14.0589 20.2477 6 24.666 6" stroke="black" stroke-width="1.5"/>
</svg>
