<svg width="80" height="80" viewBox="0 0 80 80" fill="none" xmlns="http://www.w3.org/2000/svg">
<rect width="80" height="80" rx="12" fill="#00542D"/>
<path d="M47.575 44.0614L44.3841 47.2523C43.3747 48.2617 42.1626 48.945 40.8788 49.3021L40.1809 50.0001L40.9082 58.0001L48.181 50.7273L47.575 44.0614Z" stroke="#00C537" stroke-width="1.5" stroke-linecap="round" stroke-linejoin="round"/>
<path d="M30.698 39.1203C31.0552 37.8368 31.7384 36.625 32.7476 35.6158L35.9392 32.4242L29.2728 31.8181L22 39.0909L30.0001 39.8182L30.698 39.1203Z" stroke="#00C537" stroke-width="1.5" stroke-linecap="round" stroke-linejoin="round"/>
<path d="M43.8177 26.0001C46.1944 30.2781 49.7216 33.8052 53.9996 36.182M53.6979 24.0943L45.8808 24.9629C44.0753 25.1635 42.3919 25.9726 41.1074 27.2571L32.7484 35.616C29.6242 38.7402 29.6242 43.8056 32.7484 46.9298L33.0712 47.2525C36.1953 50.3767 41.2607 50.3767 44.3849 47.2525L52.7438 38.8936C54.0283 37.609 54.8374 35.9256 55.038 34.1201L55.9066 26.303C56.0481 25.0291 54.9718 23.9528 53.6979 24.0943Z" stroke="white" stroke-width="1.5" stroke-linecap="round" stroke-linejoin="round"/>
<path d="M40.1826 39.8184L30.0007 50.0002" stroke="#00C537" stroke-width="1.5" stroke-linecap="round" stroke-linejoin="round"/>
</svg>
