<svg width="80" height="80" viewBox="0 0 80 80" fill="none" xmlns="http://www.w3.org/2000/svg">
<rect width="80" height="80" rx="12" fill="#00542D"/>
<path d="M30 39L33.5858 35.4142C34.3668 34.6332 35.6332 34.6332 36.4142 35.4142L37.5858 36.5858C38.3668 37.3668 39.6332 37.3668 40.4142 36.5858L44 33M22 28C22 24.6863 24.6863 22 28 22H46C49.3137 22 52 24.6863 52 28V44.1764C51.5109 44.0611 51.0004 44 50.4755 44C46.9049 44 44 46.8256 44 50.2996C44 50.8886 44.0835 51.4589 44.2395 52H28C24.6863 52 22 49.3137 22 46V28Z" stroke="white" stroke-width="1.5" stroke-linecap="round" stroke-linejoin="round"/>
<path d="M58.0004 58L55.0254 55.025M50.4755 44C46.9049 44 44 46.8256 44 50.2996C44 53.7737 46.9049 56.6 50.4755 56.6C54.0453 56.6 56.9501 53.7737 56.9501 50.2996C56.9501 46.8256 54.0453 44 50.4755 44Z" stroke="#00C537" stroke-width="1.5" stroke-linecap="round" stroke-linejoin="round"/>
</svg>
