<svg width="60" height="60" viewBox="0 0 60 60" fill="none" xmlns="http://www.w3.org/2000/svg">
<path d="M39.4687 35.0768L35.4801 39.0654C34.2183 40.3272 32.7033 41.1813 31.0985 41.6277L30.2261 42.5001L31.1352 52.5002L40.2262 43.4092L39.4687 35.0768Z" stroke="#00C537" stroke-width="1.5" stroke-linecap="round" stroke-linejoin="round"/>
<path d="M18.3725 28.9004C18.819 27.296 19.673 25.7813 20.9345 24.5198L24.924 20.5303L16.591 19.7727L7.5 28.8637L17.5001 29.7728L18.3725 28.9004Z" stroke="#00C537" stroke-width="1.5" stroke-linecap="round" stroke-linejoin="round"/>
<path d="M34.7714 12.5001C37.7423 17.8477 42.1512 22.2566 47.4988 25.2275M47.1217 10.118L37.3502 11.2037C35.0934 11.4544 32.9891 12.4658 31.3835 14.0714L20.9348 24.5201C17.0295 28.4254 17.0295 34.757 20.9348 38.6623L21.3382 39.0657C25.2435 42.9709 31.5751 42.9709 35.4803 39.0657L45.929 28.617C47.5347 27.0114 48.546 24.9071 48.7968 22.6502L49.8825 12.8788C50.0594 11.2865 48.714 9.94106 47.1217 10.118Z" stroke="#121418" stroke-width="1.5" stroke-linecap="round" stroke-linejoin="round"/>
<path d="M30.2285 29.7729L17.5012 42.5003" stroke="#00C537" stroke-width="1.5" stroke-linecap="round" stroke-linejoin="round"/>
</svg>
