<svg width="48" height="48" viewBox="0 0 48 48" fill="none" xmlns="http://www.w3.org/2000/svg">
<path d="M10.7134 19.8111L9.36403 21.0105C7.57397 22.6017 7.57397 25.3987 9.36403 26.9898L10.7134 28.1893C18.2911 34.925 29.7102 34.925 37.288 28.1893L38.6373 26.9898C40.4274 25.3987 40.4274 22.6017 38.6373 21.0105L37.288 19.8111C29.7102 13.0753 18.2911 13.0753 10.7134 19.8111Z" stroke="black" stroke-width="1.5"/>
<path d="M28.0007 24.0002C28.0007 26.2093 26.2098 28.0002 24.0007 28.0002C21.7915 28.0002 20.0007 26.2093 20.0007 24.0002C20.0007 21.791 21.7915 20.0002 24.0007 20.0002C26.2098 20.0002 28.0007 21.791 28.0007 24.0002Z" stroke="black" stroke-width="1.5"/>
<path d="M14 6H10C7.79086 6 6 7.79086 6 10V14M34 6H38C40.2091 6 42 7.79086 42 10V14M14 42H10C7.79086 42 6 40.2091 6 38V34M34 42H38C40.2091 42 42 40.2091 42 38V34" stroke="#00C537" stroke-width="1.5" stroke-linecap="round" stroke-linejoin="round"/>
</svg>
