<svg width="80" height="80" viewBox="0 0 80 80" fill="none" xmlns="http://www.w3.org/2000/svg">
<rect width="80" height="80" rx="12" fill="#00542D"/>
<path d="M37.568 54.48L33.88 52.175C32.7105 51.444 32 50.1622 32 48.783V35.4031C32 34.4948 32.3091 33.6136 32.8765 32.9043L38.8639 25.4202C39.582 24.5225 40.6692 24 41.8187 24C44.0574 24 45.8067 25.9329 45.5839 28.1606L45.2199 31.801C45.1022 32.9784 46.0267 34 47.21 34H50C54.4183 34 58 37.5817 58 42V46C58 51.5228 53.5228 56 48 56H42.868C40.9938 56 39.1573 55.4733 37.568 54.48Z" stroke="white" stroke-width="1.5" stroke-linecap="round" stroke-linejoin="round"/>
<path d="M22 35C22 32.2386 24.2386 30 27 30C29.7614 30 32 32.2386 32 35V49C32 51.7614 29.7614 54 27 54C24.2386 54 22 51.7614 22 49V35Z" stroke="#00C537" stroke-width="1.5" stroke-linejoin="round"/>
</svg>
