<svg width="49" height="48" viewBox="0 0 49 48" fill="none" xmlns="http://www.w3.org/2000/svg">
<path d="M6.33398 16H42.334M38.5445 42H10.1235C8.02977 42 6.33398 40.21 6.33398 38V10C6.33398 7.79 8.02977 6 10.1235 6H38.5445C40.6382 6 42.334 7.79 42.334 10V38C42.334 40.21 40.6382 42 38.5445 42Z" stroke="black" stroke-width="1.5" stroke-linecap="round" stroke-linejoin="round"/>
<path d="M11.334 11H12.334M16.334 11H17.334M21.334 11H22.334M26.334 24H36.334M26.334 29H36.334M26.334 34H32.334M14.334 36H18.334C19.4386 36 20.334 35.1046 20.334 34V24C20.334 22.8954 19.4386 22 18.334 22H14.334C13.2294 22 12.334 22.8954 12.334 24V34C12.334 35.1046 13.2294 36 14.334 36Z" stroke="#00C537" stroke-width="1.55" stroke-linecap="round"/>
</svg>
