<svg width="80" height="80" viewBox="0 0 80 80" fill="none" xmlns="http://www.w3.org/2000/svg">
<rect width="80" height="80" rx="12" fill="#00542D"/>
<path d="M44 52H28.8182C28.5411 52 28.268 51.9832 28 51.9505V50.7429C28 49.5422 28.2328 48.3533 28.6851 47.244C29.1374 46.1348 29.8003 45.1269 30.636 44.2779C31.4718 43.4289 32.4639 42.7554 33.5558 42.296C34.6478 41.8365 35.8181 41.6 37 41.6C38.1819 41.6 39.3522 41.8365 40.4442 42.296C41.5361 42.7554 42.5282 43.4289 43.364 44.2779C44.0646 44.9897 44.6438 45.8131 45.0793 46.7144M22 28.6667C22 24.9848 24.9848 22 28.6667 22H45.3333C49.0152 22 52 24.9848 52 28.6667V44.2016C51.4886 44.07 50.9525 44 50.4 44C46.8654 44 44 46.8654 44 50.4C44 50.9525 44.07 51.4886 44.2016 52H28.6667C24.9848 52 22 49.0152 22 45.3333V28.6667ZM41.9091 32.8C41.9091 35.451 39.7112 37.6 37 37.6C34.2888 37.6 32.0909 35.451 32.0909 32.8C32.0909 30.149 34.2888 28 37 28C39.7112 28 41.9091 30.149 41.9091 32.8Z" stroke="white" stroke-width="1.5" stroke-linecap="round" stroke-linejoin="round"/>
<path d="M58 58L56 56M56.8 50.4C56.8 53.9346 53.9346 56.8 50.4 56.8C46.8654 56.8 44 53.9346 44 50.4C44 46.8654 46.8654 44 50.4 44C53.9346 44 56.8 46.8654 56.8 50.4Z" stroke="#00C537" stroke-width="1.5" stroke-linecap="round" stroke-linejoin="round"/>
</svg>
