<svg width="60" height="60" viewBox="0 0 60 60" fill="none" xmlns="http://www.w3.org/2000/svg">
<path d="M17.5 7.5H12.5C9.73858 7.5 7.5 9.73858 7.5 12.5V17.5M42.5 7.5H47.5C50.2614 7.5 52.5 9.73858 52.5 12.5V17.5M17.5 52.5H12.5C9.73858 52.5 7.5 50.2614 7.5 47.5V42.5M42.5 52.5H47.5C50.2614 52.5 52.5 50.2614 52.5 47.5V42.5" stroke="#00C537" stroke-width="1.5" stroke-linecap="round" stroke-linejoin="round"/>
<path d="M21.25 42.5V41.3333C21.25 40.1733 21.4763 39.0246 21.9161 37.9529C22.3558 36.8812 23.0003 35.9074 23.8128 35.0872C24.6253 34.267 25.5899 33.6163 26.6515 33.1724C27.7131 32.7285 28.8509 32.5 30 32.5C31.1491 32.5 32.2869 32.7285 33.3485 33.1724C34.4101 33.6163 35.3747 34.267 36.1872 35.0872C36.9997 35.9074 37.6442 36.8812 38.0839 37.9529C38.5237 39.0246 38.75 40.1733 38.75 41.3333V42.5M35 22.5C35 25.2614 32.7614 27.5 30 27.5C27.2386 27.5 25 25.2614 25 22.5C25 19.7386 27.2386 17.5 30 17.5C32.7614 17.5 35 19.7386 35 22.5Z" stroke="#121418" stroke-width="1.5" stroke-linecap="round" stroke-linejoin="round"/>
</svg>
