<svg width="36" height="36" viewBox="0 0 36 36" fill="none" xmlns="http://www.w3.org/2000/svg">
<path d="M4.5 12H31.5M28.6579 31.5H7.34211C5.77184 31.5 4.5 30.1575 4.5 28.5V7.5C4.5 5.8425 5.77184 4.5 7.34211 4.5H28.6579C30.2282 4.5 31.5 5.8425 31.5 7.5V28.5C31.5 30.1575 30.2282 31.5 28.6579 31.5Z" stroke="#00542D" stroke-width="1.5" stroke-linecap="round" stroke-linejoin="round"/>
<path d="M8.25 8.25H9M12 8.25H12.75M15.75 8.25H16.5M19.5 18H27M19.5 21.75H27M19.5 25.5H24M10.5 27H13.5C14.3284 27 15 26.3284 15 25.5V18C15 17.1716 14.3284 16.5 13.5 16.5H10.5C9.67157 16.5 9 17.1716 9 18V25.5C9 26.3284 9.67157 27 10.5 27Z" stroke="#00C537" stroke-width="1.55" stroke-linecap="round"/>
</svg>
